<?xml version="1.0" standalone="no"?>
<!DOCTYPE svg PUBLIC "-//W3C//DTD SVG 20010904//EN"
 "http://www.w3.org/TR/2001/REC-SVG-20010904/DTD/svg10.dtd">
<svg version="1.0" xmlns="http://www.w3.org/2000/svg"
 width="721.000000pt" height="129.000000pt" viewBox="0 0 721.000000 129.000000"
 preserveAspectRatio="xMidYMid meet">

<g transform="translate(0.000000,129.000000) scale(0.100000,-0.100000)"
fill="#000000" stroke="none">
<path d="M2682 128 c-27 -27 -7 -78 29 -78 10 0 20 4 23 8 2 4 -8 8 -22 7 -23
0 -27 4 -27 30 0 26 4 30 27 30 14 -1 24 3 22 7 -8 12 -38 10 -52 -4z"/>
<path d="M3069 129 c-2 -27 3 -64 9 -71 4 -4 6 11 5 33 -1 39 -12 67 -14 38z"/>
<path d="M3210 125 c0 -8 -6 -12 -14 -9 -8 3 -17 1 -20 -4 -3 -5 2 -9 12 -8
11 1 17 -6 17 -19 0 -13 -6 -20 -17 -19 -10 1 -15 -2 -13 -6 3 -5 14 -8 25 -7
17 1 20 9 20 44 0 24 -2 43 -5 43 -3 0 -5 -7 -5 -15z"/>
<path d="M3283 95 c0 -27 2 -38 4 -22 2 15 2 37 0 50 -2 12 -4 0 -4 -28z"/>
<path d="M3441 93 c1 -27 4 -38 6 -26 2 13 13 24 26 26 l22 4 -22 2 c-33 2
-29 29 5 34 25 4 25 4 -5 6 -33 1 -33 1 -32 -46z"/>
<path d="M3649 129 c-2 -27 3 -64 9 -71 4 -4 6 11 5 33 -1 39 -12 67 -14 38z"/>
<path d="M3732 128 c-27 -27 -7 -78 29 -78 10 0 20 4 23 8 2 4 -8 8 -22 7 -23
0 -27 4 -27 30 0 26 4 30 27 30 14 -1 24 3 22 7 -8 12 -38 10 -52 -4z"/>
<path d="M4129 129 c-2 -27 3 -64 9 -71 4 -4 6 11 5 33 -1 39 -12 67 -14 38z"/>
<path d="M2767 113 c-16 -15 -6 -33 18 -33 14 0 25 4 25 9 0 5 -9 7 -20 4 -22
-6 -28 12 -7 20 6 3 7 6 1 6 -6 1 -14 -2 -17 -6z"/>
<path d="M2833 85 c0 -22 2 -30 4 -17 2 12 2 30 0 40 -3 9 -5 -1 -4 -23z"/>
<path d="M2857 113 c6 -4 13 -22 16 -38 4 -27 5 -27 3 4 0 21 -7 36 -16 38
-10 3 -11 2 -3 -4z"/>
<path d="M2907 113 c-16 -15 -6 -33 18 -33 14 0 25 4 25 9 0 5 -9 7 -20 4 -22
-6 -28 12 -7 20 6 3 7 6 1 6 -6 1 -14 -2 -17 -6z"/>
<path d="M2961 83 c2 -35 2 -35 6 -8 3 16 10 33 16 37 8 5 6 8 -5 8 -14 0 -18
-8 -17 -37z"/>
<path d="M3006 111 c-3 -5 3 -7 14 -4 11 3 20 0 20 -6 0 -6 -6 -11 -12 -11
-10 0 -9 -3 1 -9 10 -7 10 -10 1 -16 -7 -4 -16 -1 -21 6 -7 11 -9 10 -9 -3 0
-13 7 -17 25 -16 22 2 26 7 23 33 -3 30 -30 47 -42 26z"/>
<path d="M3117 113 c-16 -15 -6 -33 18 -33 14 0 25 4 25 9 0 5 -9 7 -20 4 -22
-6 -28 12 -7 20 6 3 7 6 1 6 -6 1 -14 -2 -17 -6z"/>
<path d="M3306 113 c7 -4 14 -17 17 -28 5 -16 5 -15 4 4 -1 14 -9 26 -17 28
-10 3 -11 2 -4 -4z"/>
<path d="M3516 111 c-3 -5 3 -7 14 -4 16 4 20 0 20 -22 0 -23 -3 -26 -21 -22
-16 4 -19 3 -11 -5 19 -19 44 -1 40 29 -3 28 -30 43 -42 24z"/>
<path d="M3583 85 c0 -22 2 -30 4 -17 2 12 2 30 0 40 -3 9 -5 -1 -4 -23z"/>
<path d="M3607 113 c6 -4 13 -22 16 -38 4 -27 5 -27 3 4 0 21 -7 36 -16 38
-10 3 -11 2 -3 -4z"/>
<path d="M3827 113 c-16 -15 -6 -33 18 -33 14 0 25 4 25 9 0 5 -9 7 -20 4 -22
-6 -28 12 -7 20 6 3 7 6 1 6 -6 1 -14 -2 -17 -6z"/>
<path d="M3893 85 c0 -22 2 -30 4 -17 2 12 2 30 0 40 -3 9 -5 -1 -4 -23z"/>
<path d="M3917 113 c6 -4 13 -22 16 -38 4 -27 5 -27 3 4 0 21 -7 36 -16 38
-10 3 -11 2 -3 -4z"/>
<path d="M3957 113 c-16 -15 -6 -33 18 -33 14 0 25 4 25 9 0 5 -9 7 -20 4 -22
-6 -28 12 -7 20 6 3 7 6 1 6 -6 1 -14 -2 -17 -6z"/>
<path d="M4021 83 c2 -35 2 -35 6 -8 3 16 10 33 16 37 8 5 6 8 -5 8 -14 0 -18
-8 -17 -37z"/>
<path d="M4066 111 c-3 -5 3 -7 14 -4 11 3 20 0 20 -6 0 -6 -6 -11 -12 -11
-10 0 -9 -3 1 -9 10 -7 10 -10 1 -16 -7 -4 -16 -1 -21 6 -7 11 -9 10 -9 -3 0
-13 7 -17 25 -16 22 2 26 7 23 33 -3 30 -30 47 -42 26z"/>
<path d="M4176 111 c-3 -5 3 -7 14 -4 16 4 20 0 20 -22 0 -23 -3 -26 -21 -22
-16 4 -19 3 -11 -5 19 -19 44 -1 40 29 -3 28 -30 43 -42 24z"/>
<path d="M4231 83 c2 -35 2 -35 6 -8 3 16 10 33 16 37 8 5 6 8 -5 8 -14 0 -18
-8 -17 -37z"/>
<path d="M4306 111 c-4 -5 3 -7 14 -4 23 6 26 13 6 13 -8 0 -17 -4 -20 -9z"/>
<path d="M4366 111 c-3 -5 3 -7 14 -4 16 4 20 0 20 -22 0 -23 -3 -26 -21 -22
-16 4 -19 3 -11 -5 19 -19 44 -1 40 29 -3 28 -30 43 -42 24z"/>
<path d="M4433 85 c0 -22 2 -30 4 -17 2 12 2 30 0 40 -3 9 -5 -1 -4 -23z"/>
<path d="M4456 109 c3 -5 14 -7 24 -4 15 5 20 0 23 -22 4 -28 4 -28 3 2 -1 25
-5 30 -29 32 -16 1 -25 -2 -21 -8z"/>
<path d="M2718 93 c7 -3 16 -2 19 1 4 3 -2 6 -13 5 -11 0 -14 -3 -6 -6z"/>
<path d="M3768 93 c7 -3 16 -2 19 1 4 3 -2 6 -13 5 -11 0 -14 -3 -6 -6z"/>
<path d="M3353 69 c3 -9 0 -23 -6 -30 -7 -8 -3 -6 8 3 16 15 17 20 6 30 -11
11 -13 10 -8 -3z"/>
<path d="M2767 58 c6 -10 30 -10 36 0 3 4 -5 7 -18 7 -13 0 -21 -3 -18 -7z"/>
<path d="M2907 58 c6 -10 30 -10 36 0 3 4 -5 7 -18 7 -13 0 -21 -3 -18 -7z"/>
<path d="M3117 58 c6 -10 30 -10 36 0 3 4 -5 7 -18 7 -13 0 -21 -3 -18 -7z"/>
<path d="M3827 58 c6 -10 30 -10 36 0 3 4 -5 7 -18 7 -13 0 -21 -3 -18 -7z"/>
<path d="M3957 58 c6 -10 30 -10 36 0 3 4 -5 7 -18 7 -13 0 -21 -3 -18 -7z"/>
<path d="M4307 58 c6 -10 30 -10 36 0 3 4 -5 7 -18 7 -13 0 -21 -3 -18 -7z"/>
</g>
</svg>
